<svg width="818" height="122" viewBox="0 0 818 122" fill="none" xmlns="http://www.w3.org/2000/svg">
<path d="M110.667 60.0003V98.667H118.667H126.667L126.933 76.9337L127.333 55.3337L135.333 69.6003L143.333 84.0003H148.8H154.267L162.8 69.067L171.333 54.1337L171.733 76.4003L172 98.667H179.333H186.667V60.0003V21.3337H179.733L172.667 21.467L161.333 42.0003C155.067 53.3337 149.6 62.667 149.067 62.667C148.667 62.667 143.067 53.3337 136.667 42.0003L125.067 21.3337H117.867H110.667V60.0003Z" fill="#001C98"/>
<path d="M204.933 58.9337C197.067 79.7337 190.667 97.067 190.667 97.6003C190.667 98.267 194.133 98.667 198.533 98.667H206.267L210 88.267C212 82.667 216.4 70.5337 219.733 61.467L225.733 44.9337L233.6 66.1337C237.867 77.7337 242.267 89.867 243.467 92.9337L245.6 98.667H253.467C257.733 98.667 261.333 98.267 261.333 97.6003C261.2 97.067 254.8 79.867 246.933 59.3337L232.667 22.0003L225.867 21.6003L219.2 21.2003L204.933 58.9337Z" fill="#001C98"/>
<path d="M265.333 59.867V98.667H272.666H280V67.3337V36.0003H288.666C296.266 36.0003 297.866 36.4003 300.666 39.3337C303.866 42.5337 304.8 46.9337 303.2 51.3337C302.133 54.0003 295.733 57.3337 291.333 57.3337C288.133 57.3337 288 57.7337 288 64.9337C288 72.267 288.533 73.3337 297.066 85.6003L306 98.5337L315.066 98.667C320 98.667 324 98.4003 324 98.0003C324 97.7337 319.733 91.3337 314.533 84.0003L305.066 70.5337L311.066 65.3337C320.8 56.667 322.666 42.9337 315.333 31.867C310.133 23.867 304.666 22.0003 283.733 21.6003L265.333 21.067V59.867Z" fill="#001C98"/>
<path d="M320 28.667V36.0003H330.667H341.333V67.3337V98.667H349.333H357.333V67.3337V36.0003H368H378.667V28.667V21.3337H349.333H320V28.667Z" fill="#001C98"/>
<path d="M428.667 24.5337C398.8 38.5337 397.6 79.3337 426.533 94.267C433.733 98.0003 436.267 98.667 444.4 98.667C466 98.5337 481.867 83.067 483.733 60.267L484.4 51.867L464.533 52.267L444.667 52.667V60.0003V67.3337L455.6 68.0003L466.667 68.667L464 73.067C456.933 84.667 440.133 86.9337 429.333 77.867C423.6 72.9337 421.333 67.867 421.333 59.7337C421.333 39.6003 444.4 29.067 460 42.267L463.867 45.467L470.133 41.3337L476.267 37.067L471.867 32.5337C460.933 21.3337 442.667 17.867 428.667 24.5337Z" fill="#001C98"/>
<path d="M496 46.9337C490.667 61.067 484 78.5337 481.2 85.6003L476.267 98.667H484.4H492.667L501.2 74.9337C505.867 62.0003 510.267 49.867 510.933 48.0003C512 45.067 513.467 48.1337 522 71.3337L531.733 98.0003L540 98.4003C547.467 98.8003 548.133 98.5337 547.467 96.4003C546.933 95.067 540.4 77.7337 532.933 58.0003L519.2 22.0003L512.4 21.6003L505.733 21.2003L496 46.9337Z" fill="#001C98"/>
<path d="M550.667 60.0003V98.667H558.667H566.667V67.3337V36.0003H575.333C582.933 36.0003 584.533 36.4003 587.333 39.3337C590.533 42.5337 591.467 46.9337 589.867 51.3337C588.8 54.0003 582.4 57.3337 578 57.3337C574.8 57.3337 574.667 57.7337 574.667 65.067C574.667 72.4003 575.067 73.3337 583.733 85.7337L592.667 98.667H608H623.467L630.533 78.9337C634.4 68.1337 638.933 56.0003 640.4 52.1337L643.067 44.8003L649.6 62.8003C653.2 72.5337 657.6 84.667 659.467 89.6003L662.933 98.667H670.933C677.867 98.667 678.8 98.4003 678.133 96.267C677.733 95.067 671.2 77.7337 663.6 58.0003L649.867 22.0003L643.2 21.6003L636.4 21.2003L622.533 57.867C614.933 78.0003 608.533 94.4003 608.4 94.1337C608.267 94.0003 604.267 88.5337 599.6 82.0003L591.067 70.0003L594.667 67.867C612 57.2003 608.933 28.667 589.733 22.9337C586.8 22.0003 576.8 21.3337 567.467 21.3337H550.667V60.0003Z" fill="#001C98"/>
<path d="M696 25.3337C686.4 30.8003 682 35.067 678 43.2003C673.333 52.667 673.333 67.3337 678 76.8003C684.667 90.267 697.6 98.667 711.733 98.667C722.933 98.667 728.933 96.8003 736.8 90.8003C746 83.7337 750.933 74.1337 751.733 61.867L752.4 52.0003H732.8H713.333V60.0003V68.0003H724C730.933 68.0003 734.667 68.5337 734.667 69.467C734.667 72.5337 724.4 81.067 718.933 82.5337C712.533 84.267 704.4 82.667 698.4 78.5337C694 75.3337 689.333 65.867 689.333 60.0003C689.333 57.467 690.533 52.9337 692.133 49.7337C698.8 36.0003 716.4 31.867 727.333 41.6003C729.867 43.7337 732.4 45.3337 732.933 45.067C736.533 43.6003 744 37.7337 744 36.5337C744 34.667 739.333 30.5337 732 25.867C726.933 22.667 724.267 22.1337 714.667 21.7337C704 21.2003 702.933 21.467 696 25.3337Z" fill="#001C98"/>
<path d="M753.333 28.6667V36H778.666H804V28.6667V21.3333H778.666H753.333V28.6667Z" fill="#001C98"/>
<path d="M753.6 60.2667L754 67.3333L779.066 67.7333L804 68V60.6667V53.3333H778.533H753.2L753.6 60.2667Z" fill="#001C98"/>
<path d="M216.933 84.2666C218.4 86.6666 220.933 90.7999 222.667 93.4666L225.867 98.2666L230.667 90.7999C233.333 86.6666 235.867 82.5333 236.533 81.5999C237.2 80.3999 234.8 79.9999 226 79.9999H214.4L216.933 84.2666Z" fill="#001C98"/>
<path d="M501.6 81.0674C503.333 85.2008 511.6 97.2008 512.4 96.9341C513.066 96.8008 515.866 92.9341 518.8 88.2674L524 80.0008H512.533C506.266 80.0008 501.333 80.4008 501.6 81.0674Z" fill="#001C98"/>
<path d="M632.267 81.0666C632.533 81.7333 635.067 85.8666 637.867 90.2666L643.2 98.2666L648 90.7999C650.667 86.6666 653.2 82.5333 653.867 81.5999C654.533 80.3999 652.133 79.9999 643.333 79.9999C636.933 79.9999 632 80.5333 632.267 81.0666Z" fill="#001C98"/>
<path d="M754.266 84.9337C753.733 85.3337 753.333 88.667 753.333 92.267V98.667H778.666H804V91.3337V84.0003H779.6C766.133 84.0003 754.666 84.4003 754.266 84.9337Z" fill="#001C98"/>
<path d="M44.0572 21.0001C45.7545 21.0003 45.7545 21.0003 47.4861 21.0005C49.3217 21.0125 49.3217 21.0125 51.1944 21.0247C53.0712 21.028 53.0712 21.028 54.9859 21.0314C58.9927 21.0401 62.9994 21.0595 67.0062 21.0792C69.7182 21.0869 72.4303 21.094 75.1424 21.1003C81.8003 21.1174 88.458 21.1442 95.1159 21.176C95.1159 25.7756 95.1159 30.3752 95.1159 35.1142C93.5345 35.1449 91.9531 35.1756 90.3238 35.2072C84.4632 35.3249 78.6029 35.4623 72.7426 35.6057C70.205 35.665 67.6673 35.719 65.1296 35.7675C61.4843 35.8382 57.8395 35.928 54.1945 36.0216C52.4894 36.0484 52.4894 36.0484 50.7497 36.0758C49.1633 36.122 49.1633 36.122 47.5448 36.1691C46.6143 36.1897 45.6838 36.2103 44.7251 36.2316C41.8874 36.5035 41.8874 36.5035 38.5892 39.7602C38.0772 44.4063 38.0772 44.4063 38.5892 49.0524C42.0797 53.4514 45.4947 52.61 50.1672 52.6277C52.0297 52.6667 53.8921 52.706 55.7546 52.7457C58.6883 52.79 61.6219 52.8272 64.5557 52.8564C67.389 52.8901 70.2214 52.9513 73.0543 53.0149C73.9225 53.015 74.7906 53.0152 75.6851 53.0154C82.2422 53.179 87.3642 55.0077 92.2214 60.722C96.6164 67.9654 98.0883 71.8563 97.9959 80.8731C97.2808 87.305 95.0064 92.4278 91.4293 97.0618C85.1712 101.981 80.2512 102.335 73.1215 102.162C72.0955 102.155 71.0695 102.148 70.0124 102.142C66.757 102.116 63.5026 102.058 60.2475 101.998C58.0315 101.975 55.8154 101.954 53.5993 101.935C48.186 101.884 42.7734 101.804 37.3604 101.708C37.3604 104.774 37.3604 107.841 37.3604 111C32.9411 105.59 28.9619 99.9873 25.072 93.9644C26.8856 91.3787 28.7041 88.7985 30.525 86.221C31.5372 84.7836 32.5494 83.3462 33.5923 81.8653C34.4302 80.7473 35.2682 79.6293 36.1316 78.4775C36.5371 78.4775 36.9426 78.4775 37.3604 78.4775C37.3604 81.5439 37.3604 84.6103 37.3604 87.7696C43.4185 87.6248 49.476 87.4605 55.5335 87.2781C57.5943 87.2188 59.6551 87.1648 61.7161 87.1163C64.6782 87.0456 67.6397 86.9558 70.6015 86.8622C71.9841 86.8354 71.9841 86.8354 73.3947 86.808C77.9874 86.6438 80.1416 86.4127 84.0563 83.1236C84.466 77.6383 84.466 77.6383 84.0563 72.2827C81.6439 69.2424 76.9455 70.5221 73.6448 70.5163C71.7335 70.4879 69.8222 70.4575 67.911 70.4255C64.8963 70.3809 61.8827 70.3469 58.8678 70.3461C37.0899 70.3071 37.0899 70.3071 29.9874 61.4419C25.7888 55.9806 25.4038 50.9517 25 43.5775C25.1241 36.9985 26.8618 32.8076 30.5634 28.2419C35.236 23.1613 37.9837 20.9792 44.0572 21.0001Z" fill="#548DFE"/>
</svg>
